<svg
  width="1920"
  height="1920"
  viewBox="0 0 1920 1920"
  xmlns="http://www.w3.org/2000/svg"
>
  <path
    fill="#0A0A0A"
    fill-rule="evenodd"
    d="
      M0 0 H1920 V1920 H0 Z


      M580 880
      H760 V940 H640 V980 H740 V1040 H640 V1160 H580 Z

      M790 880
      H850 V1160 H790 Z

      M890 1045
      C890 985 935 935 990 935
      C1045 935 1090 985 1090 1045
      C1090 1105 1045 1155 990 1155
      C935 1155 890 1105 890 1045
      Z
      
      
      
      
      M1100 935
      L1175 1145
      L1210 1145
      L1250 1045
      L1290 1145
      L1325 1145
      L1365 935
      H1315
      L1300 1065
      L1250 935
      L1225 935
      L1185 1075
      L1155 935
      Z


    "
  />

    <path
    fill="#0A0A0A"
    fill-rule="evenodd"
    d="M945 1015
      M935 1045
      C935 1075 960 1100 990 1100
      C1020 1100 1045 1075 1045 1045
      C1045 1015 1020 990 990 990
      C960 990 935 1015 935 1045
      Z


"
/>

</svg>