<svg
  width="1920"
  height="1920"
  viewBox="0 0 1920 1920"
  xmlns="http://www.w3.org/2000/svg"
>
  <path
    fill="#0A0A0A"
    fill-rule="evenodd"
    d="
      M0 0 H1920 V1920 H0 Z


      M440 860
      H620 V920 H500 V960 H600 V1020 H500 V1140 H440 Z

      M680 860
      H740 V1140 H680 Z

      M810 990
      C810 910 865 850 950 850
      C1035 850 1090 910 1090 1000
      C1090 1090 1035 1150 950 1145
      C865 1145 810 1070 810 1000
      Z

      M1140 860
      L1200 1140
      L1250 1140
      L1300 1000
      L1360 1140
      L1400 1140
      L1440 860
      H1380
      L1360 1050
      L1310 860
      L1280 860
      L1230 1060
      L1200 860
      Z
    "
  />

  <path 
    d="M895 1000
      C895 1040 920 1070 950 1070
      C980 1070 1005 1040 1005 1000
      C1005 960 980 930 950 930
      C920 930 895 960 895 1000
      Z
" fill="#0A0A0A"/>

</svg>

