<svg
  width="1920"
  height="1080"
  viewBox="0 0 1920 1080"
  xmlns="http://www.w3.org/2000/svg"
>
  <path
    fill="#0A0A0A"
    fill-rule="evenodd"
    d="
      M0 0 H1920 V1080 H0 Z


      M440 360
      H620 V420 H500 V460 H600 V520 H500 V640 H440 Z

      M680 360
      H740 V640 H680 Z

      M810 490
      C810 410 865 350 950 350
      C1035 350 1090 410 1090 500
      C1090 590 1035 650 950 645
      C865 645 810 570 810 500
      Z

      M1140 360
      L1200 640
      L1250 640
      L1300 500
      L1360 640
      L1400 640
      L1440 360
      H1380
      L1360 550
      L1310 360
      L1280 360
      L1230 560
      L1200 360
      Z
    "
  />

</svg>

