<svg
  width="1920"
  height="1920"
  viewBox="0 0 1920 1920"
  xmlns="http://www.w3.org/2000/svg"
>
  <path
    fill="#0A0A0A"
    fill-rule="evenodd"
    d="
      M0 0 H1920 V1920 H0 Z


      M530 860
      H710 V920 H590 V960 H690 V1020 H590 V1140 H530 Z

      M740 860
      H800 V1140 H740 Z

      M830 990
      C830 920 865 830 980 850
      C1035 850 1090 910 1090 1000
      C1090 1090 1035 1150 950 1145
      C870 1145 830 1070 830 1000
      Z

      M1100 860
      L1160 1140
      L1210 1140
      L1260 1000
      L1320 1140
      L1360 1140
      L1400 860
      H1340
      L1320 1050
      L1270 860
      L1240 860
      L1190 1060
      L1160 860
      Z
    "
  />

  <path 
    d="M900 1000
      C900 1040 925 1070 955 1070
      C985 1070 1010 1040 1010 1000
      C1010 960 985 930 955 930
      C925 930 900 960 900 1000
      Z
" fill="#0A0A0A"/>

</svg>

