<svg
  width="1920"
  height="1920"
  viewBox="0 0 1920 1920"
  xmlns="http://www.w3.org/2000/svg"
>
  <path
    fill="#0A0A0A"
    fill-rule="evenodd"
    d="
      M0 0 H1920 V1920 H0 Z


      M580 860
      H760 V920 H640 V960 H740 V1020 H640 V1140 H580 Z

      M790 860
      H850 V1140 H790 Z

      M890 1015
      C890 955 935 905 990 905
      C1045 905 1090 955 1090 1015
      C1090 1075 1045 1125 990 1125
      C935 1125 890 1075 890 1015
      Z



      M1100 905
      L1175 1115
      L1210 1115
      L1250 1015
      L1290 1115
      L1325 1115
      L1365 905
      H1315
      L1300 1035
      L1250 905
      L1225 905
      L1185 1045
      L1155 905
      Z

    "
  />

    <path
    fill="#0A0A0A"
    fill-rule="evenodd"
    d="M945 1015
      M935 1015
      C935 1045 960 1070 990 1070
      C1020 1070 1045 1045 1045 1015
      C1045 985 1020 960 990 960
      C960 960 935 985 935 1015
      Z

"
/>

</svg>